# xmcd CD database file
#
# Track frame offsets:
#	150
#	12812
#	25647
#	38262
#	51240
#	65137
#	78287
#	92000
#	106600
#	117925
#	132575
#	144925
#	158612
#	172225
#	184805
#	197062
#	209137
#	222262
#	236212
#	250105
#
# Disc length: 3509 seconds
#
# Revision: 5
# Processed by: cddbd v1.5.1PL0 Copyright (c) Steve Scherf et al.
# Submitted via: CDex 1.51
#
DISCID=150db314
DTITLE=Various Artist - Living The Blues - 1945-1949 Blues CLASSICS
DYEAR=1997
DGENRE=Blues
TTITLE0=Wynonie Harris - Good Rockin' Tonight
TTITLE1=Amos Milburn - Chicken Shack Boogie
TTITLE2=Louis Jordan and His Tympany Five - Let The Good Times Roll
TTITLE3=Dinah Washington - Baby Get Lost
TTITLE4=Roy Brown - Long About Midnight
TTITLE5=Arthur "Big Boy" Crudup - That's All Right
TTITLE6=John Lee Hooker - Hobo Blues
TTITLE7=Big Joe Turner - My Gal's A Jockey
TTITLE8=Pee Wee Crayton - Blues After Hours
TTITLE9=Johnny Moore's 3 Blazers - Drifting Blues
TTITLE10=Louis Jordan and His Tympany Five - Choo Choo Ch'Boogie
TTITLE11=Nellie Lutcher - He's A Real Gone Guy
TTITLE12=Bull Moose Jackson - Why Don't You Haul Off And Love Me
TTITLE13=Eddie "Cleanhead" Vinson - Old Man Boogie
TTITLE14=Muddy Waters - I Can't Be Satisfied
TTITLE15=T-Bone Walker - Bobby Sox Blues
TTITLE16=Julia Lee and Her Boyfriends - (Opportunity Knocks But Once) Snatch And Grab It
TTITLE17=Joe Liggins and His Honeydrippers - The Honeydripper
TTITLE18=Arbee Stidham - My Heart Belongs To You
TTITLE19=Little Willie Littlefield - It's Midnight
EXTD=YEAR: 1997
EXTT0=
EXTT1=
EXTT2=
EXTT3=
EXTT4=
EXTT5=
EXTT6=
EXTT7=
EXTT8=
EXTT9=
EXTT10=
EXTT11=
EXTT12=
EXTT13=
EXTT14=
EXTT15=
EXTT16=
EXTT17=
EXTT18=
EXTT19=
PLAYORDER=
